<svg xmlns="http://www.w3.org/2000/svg" width="760" height="430" viewBox="0 0 760 430">
<rect width="760" height="430" rx="14" fill="#0d1117"/>
<rect x="16" y="16" width="728" height="398" rx="12" fill="#161b22" stroke="#30363d"/>
<text x="36" y="52" fill="#e6edf3" font-family="Segoe UI,Arial" font-size="22" font-weight="700">MetroScan</text>
<text x="36" y="74" fill="#8b949e" font-family="Segoe UI,Arial" font-size="13">Ranked leads - illustrative sample (fictional data)</text>
<line x1="36" y1="92" x2="724" y2="92" stroke="#30363d"/>
<rect x="36" y="120" width="172" height="248" rx="10" fill="#1c222b" stroke="#30363d"/>
<text x="52" y="148" fill="#8b949e" font-family="Segoe UI,Arial" font-size="11" letter-spacing="1">METRO</text>
<text x="52" y="172" fill="#e6edf3" font-family="Segoe UI,Arial" font-size="16" font-weight="600">Columbus, OH</text>
<text x="52" y="214" fill="#8b949e" font-family="Segoe UI,Arial" font-size="12">Firms scanned</text>
<text x="52" y="236" fill="#58a6ff" font-family="monospace" font-size="20">1,240</text>
<text x="52" y="276" fill="#8b949e" font-family="Segoe UI,Arial" font-size="12">Shortlist</text>
<text x="52" y="298" fill="#3fb950" font-family="monospace" font-size="20">18</text>
<text x="52" y="344" fill="#8b949e" font-family="Segoe UI,Arial" font-size="11">Hot - Warm - Cool</text>
<rect x="232" y="120" width="500" height="48" rx="8" fill="#1c222b" stroke="#30363d"/>
<text x="252" y="150" fill="#8b949e" font-family="monospace" font-size="15">1</text>
<text x="286" y="142" fill="#e6edf3" font-family="Segoe UI,Arial" font-size="16" font-weight="600">Apex Mechanical Group</text>
<text x="286" y="160" fill="#8b949e" font-family="Segoe UI,Arial" font-size="12.5">3 new job posts - crew ramp</text>
<rect x="648" y="133" width="66" height="22" rx="11" fill="#f85149" opacity="0.16"/>
<text x="681" y="148" fill="#f85149" font-family="Segoe UI,Arial" font-size="12" font-weight="700" text-anchor="middle">HOT</text><rect x="232" y="178" width="500" height="48" rx="8" fill="#1c222b" stroke="#30363d"/>
<text x="252" y="208" fill="#8b949e" font-family="monospace" font-size="15">2</text>
<text x="286" y="200" fill="#e6edf3" font-family="Segoe UI,Arial" font-size="16" font-weight="600">Granite Ridge Builders</text>
<text x="286" y="218" fill="#8b949e" font-family="Segoe UI,Arial" font-size="12.5">Permit filed - hiring page live</text>
<rect x="648" y="191" width="66" height="22" rx="11" fill="#f85149" opacity="0.16"/>
<text x="681" y="206" fill="#f85149" font-family="Segoe UI,Arial" font-size="12" font-weight="700" text-anchor="middle">HOT</text><rect x="232" y="236" width="500" height="48" rx="8" fill="#1c222b" stroke="#30363d"/>
<text x="252" y="266" fill="#8b949e" font-family="monospace" font-size="15">3</text>
<text x="286" y="258" fill="#e6edf3" font-family="Segoe UI,Arial" font-size="16" font-weight="600">Northstar Roofing Co.</text>
<text x="286" y="276" fill="#8b949e" font-family="Segoe UI,Arial" font-size="12.5">2 job posts - fleet expansion</text>
<rect x="648" y="249" width="66" height="22" rx="11" fill="#d29922" opacity="0.16"/>
<text x="681" y="264" fill="#d29922" font-family="Segoe UI,Arial" font-size="12" font-weight="700" text-anchor="middle">WARM</text><rect x="232" y="294" width="500" height="48" rx="8" fill="#1c222b" stroke="#30363d"/>
<text x="252" y="324" fill="#8b949e" font-family="monospace" font-size="15">4</text>
<text x="286" y="316" fill="#e6edf3" font-family="Segoe UI,Arial" font-size="16" font-weight="600">Lakeside HVAC &amp; Air</text>
<text x="286" y="334" fill="#8b949e" font-family="Segoe UI,Arial" font-size="12.5">Hiring page live</text>
<rect x="648" y="307" width="66" height="22" rx="11" fill="#d29922" opacity="0.16"/>
<text x="681" y="322" fill="#d29922" font-family="Segoe UI,Arial" font-size="12" font-weight="700" text-anchor="middle">WARM</text><rect x="232" y="352" width="500" height="48" rx="8" fill="#1c222b" stroke="#30363d"/>
<text x="252" y="382" fill="#8b949e" font-family="monospace" font-size="15">5</text>
<text x="286" y="374" fill="#e6edf3" font-family="Segoe UI,Arial" font-size="16" font-weight="600">Cedar Valley Concrete</text>
<text x="286" y="392" fill="#8b949e" font-family="Segoe UI,Arial" font-size="12.5">No active signals</text>
<rect x="648" y="365" width="66" height="22" rx="11" fill="#3fb950" opacity="0.16"/>
<text x="681" y="380" fill="#3fb950" font-family="Segoe UI,Arial" font-size="12" font-weight="700" text-anchor="middle">COOL</text>
</svg>